<?xml version="1.0" encoding="utf-8"?>
<svg xmlns="http://www.w3.org/2000/svg" viewBox="-4.299 0.702 56.333 39.171" xmlns:bx="https://boxy-svg.com" width="56.333px" height="39.171px"><defs><bx:export><bx:file format="svg" href="#object-0"/><bx:file format="svg" href="#object-1" path="Untitled 2.svg"/><bx:file format="svg" href="#object-2" path="Untitled 3.svg"/><bx:file format="svg" path="Untitled 4.svg"/></bx:export></defs><path d="M 45.018 3.172 C 44.515 2.413 43.832 1.79 43.03 1.359 C 42.228 0.928 41.332 0.702 40.422 0.702 L 27.726 0.702 L 34.734 11.515 C 35.238 12.274 35.921 12.895 36.723 13.325 C 37.525 13.755 38.42 13.979 39.33 13.978 L 52.031 13.978 L 45.018 3.172 Z" style="fill: rgb(219, 36, 27);" id="object-0"/><path d="M 34.742 19.765 C 35.245 19.006 35.929 18.383 36.731 17.952 C 37.533 17.521 38.429 17.296 39.339 17.295 L 52.034 17.295 L 45.026 28.104 C 44.523 28.863 43.84 29.487 43.037 29.918 C 42.235 30.349 41.339 30.574 40.429 30.574 L 27.728 30.574 L 34.742 19.765 Z" style="fill: rgb(161, 187, 26);" id="object-1"/><path d="M 29.253 20.051 C 29.947 18.995 30.816 18.064 31.823 17.301 L 18.341 17.301 C 17.431 17.301 16.535 17.527 15.734 17.958 C 14.932 18.389 14.249 19.011 13.745 19.771 L 0.701 39.873 L 13.4 39.873 C 14.31 39.874 15.205 39.649 16.007 39.22 C 16.809 38.79 17.493 38.169 17.997 37.41 L 29.253 20.051 Z" style="fill: rgb(1, 126, 198);" id="object-2"/></svg>